<mxfile host="app.diagrams.net" modified="2020-12-17T12:51:40.673Z" agent="5.0 (Macintosh; Intel Mac OS X 11_1_0) AppleWebKit/537.36 (KHTML, like Gecko) Chrome/87.0.4280.88 Safari/537.36" etag="aERUwryGddvwM0kyw2Gr" version="14.0.4" type="github">
  <diagram id="QtLzPMq3rJ1owqe7LJAN" name="Page-1">
    <mxGraphModel dx="946" dy="588" grid="1" gridSize="10" guides="1" tooltips="1" connect="1" arrows="1" fold="1" page="1" pageScale="1" pageWidth="827" pageHeight="1169" math="0" shadow="0">
      <root>
        <mxCell id="0" />
        <mxCell id="1" parent="0" />
        <mxCell id="VkcDURog2-cO2y1oPUhJ-1" value="Guest Book" style="text;html=1;strokeColor=none;fillColor=none;align=center;verticalAlign=middle;whiteSpace=wrap;rounded=0;strokeWidth=1;fontStyle=1;fontSize=20;" vertex="1" parent="1">
          <mxGeometry x="310" width="180" height="60" as="geometry" />
        </mxCell>
        <mxCell id="VkcDURog2-cO2y1oPUhJ-6" value="LandingPage&lt;br&gt;" style="text;html=1;strokeColor=none;fillColor=none;align=center;verticalAlign=middle;whiteSpace=wrap;rounded=0;fontSize=16;" vertex="1" parent="1">
          <mxGeometry x="110" y="100" width="160" height="50" as="geometry" />
        </mxCell>
        <mxCell id="VkcDURog2-cO2y1oPUhJ-7" value="GuestBookPage" style="text;html=1;strokeColor=none;fillColor=none;align=center;verticalAlign=middle;whiteSpace=wrap;rounded=0;fontSize=16;" vertex="1" parent="1">
          <mxGeometry x="540" y="100" width="160" height="50" as="geometry" />
        </mxCell>
        <mxCell id="VkcDURog2-cO2y1oPUhJ-8" value="LandingPage&lt;br&gt;" style="text;html=1;strokeColor=none;fillColor=none;align=center;verticalAlign=middle;whiteSpace=wrap;rounded=0;fontSize=16;" vertex="1" parent="1">
          <mxGeometry x="110" y="200" width="160" height="50" as="geometry" />
        </mxCell>
      </root>
    </mxGraphModel>
  </diagram>
</mxfile>
